<?xml version="1.0" standalone="no"?>
<!DOCTYPE svg PUBLIC "-//W3C//DTD SVG 20010904//EN"
 "http://www.w3.org/TR/2001/REC-SVG-20010904/DTD/svg10.dtd">
<svg version="1.0" xmlns="http://www.w3.org/2000/svg"
 width="1416.000000pt" height="1416.000000pt" viewBox="0 0 1416.000000 1416.000000"
 preserveAspectRatio="xMidYMid meet">
<metadata>
Created by potrace 1.11, written by Peter Selinger 2001-2013
</metadata>
<g transform="translate(0.000000,1416.000000) scale(0.100000,-0.100000)"
fill="#000000" stroke="none">
<path d="M6239 14156 c-2 -2 -40 -6 -84 -10 -78 -6 -235 -28 -285 -41 -14 -3
-34 -8 -46 -10 -46 -10 -147 -46 -206 -73 -59 -27 -177 -97 -188 -112 -14 -17
-137 -105 -171 -122 -21 -10 -60 -21 -86 -24 -76 -8 -111 -20 -182 -64 -49
-29 -90 -44 -147 -55 -229 -43 -475 -122 -724 -230 -85 -38 -378 -187 -429
-219 -22 -15 -43 -26 -45 -26 -14 0 -481 -302 -496 -321 -3 -3 -30 -23 -60
-44 -139 -96 -477 -369 -655 -528 -326 -294 -540 -517 -645 -677 -8 -12 -22
-32 -31 -44 -63 -84 -223 -333 -312 -486 -271 -467 -506 -1026 -647 -1537 -22
-81 -47 -170 -55 -198 -25 -88 -83 -365 -114 -540 -30 -168 -36 -208 -46 -295
-3 -25 -7 -56 -10 -70 -3 -14 -7 -52 -10 -86 -3 -33 -7 -70 -10 -82 -2 -11 -7
-58 -10 -104 -4 -46 -8 -99 -10 -118 -27 -281 -27 -980 0 -1260 2 -25 7 -76
10 -115 3 -38 8 -86 10 -105 2 -19 9 -78 15 -130 12 -100 55 -367 70 -435 5
-22 11 -54 14 -72 63 -359 226 -870 418 -1313 159 -366 363 -761 597 -1154
276 -463 758 -1147 1047 -1486 42 -49 239 -275 254 -291 134 -143 329 -335
460 -451 110 -98 122 -108 160 -137 19 -14 37 -28 40 -31 5 -5 136 -107 190
-148 244 -183 642 -409 925 -525 118 -48 341 -124 389 -133 16 -3 32 -6 35 -8
5 -4 329 -81 376 -90 11 -2 47 -11 80 -19 73 -19 214 -45 281 -53 27 -3 60 -8
74 -11 14 -3 180 -6 370 -8 190 -1 368 -6 395 -10 85 -12 98 -13 165 -20 36
-4 72 -8 80 -10 101 -25 756 -25 912 0 13 2 50 6 83 9 82 8 154 16 186 22 15
2 47 6 70 9 24 3 69 10 99 15 30 5 73 12 95 15 22 4 47 8 55 10 8 2 30 7 48
10 18 3 65 12 105 21 39 8 83 18 97 20 14 3 50 12 80 20 30 8 115 30 188 49
584 154 1184 427 1706 779 124 83 432 311 472 350 6 6 37 34 70 61 252 214
537 505 744 760 36 44 67 82 70 85 23 21 239 321 324 448 209 315 363 604 527
988 187 438 264 645 393 1061 46 146 165 621 180 718 2 11 6 34 9 50 4 17 9
44 12 60 3 17 7 41 10 55 12 64 15 78 20 115 3 23 7 50 9 60 2 11 7 42 10 68
4 27 9 59 12 70 2 12 7 45 9 73 3 28 7 59 9 70 2 10 7 48 11 84 3 36 8 76 10
90 49 344 53 1165 10 1630 -13 136 -20 196 -30 275 -2 17 -7 53 -10 80 -3 28
-7 61 -10 75 -2 14 -6 41 -9 60 -27 188 -79 464 -122 650 -14 58 -27 116 -30
130 -3 14 -12 50 -20 80 -18 68 -23 85 -28 108 -3 9 -25 87 -50 172 -83 286
-189 576 -298 820 -33 74 -69 155 -80 180 -57 129 -231 462 -294 561 -13 21
-24 41 -24 43 0 8 -199 306 -279 416 -63 87 -262 343 -281 360 -3 3 -43 48
-90 100 -67 76 -192 208 -286 304 -50 50 -220 206 -309 281 -32 28 -63 55 -69
61 -6 5 -65 53 -131 106 -503 400 -1076 736 -1631 957 -54 21 -148 62 -209 89
-200 90 -499 175 -755 216 -19 3 -46 8 -59 11 -39 8 -203 29 -301 39 -25 3
-65 7 -90 10 -52 6 -171 16 -280 22 -41 3 -212 6 -379 9 -167 2 -316 6 -330 9
-14 3 -69 8 -121 12 -52 4 -113 8 -135 11 -52 4 -642 13 -646 9z"/>
</g>
</svg>
